<svg width="1206" height="264" viewBox="0 0 1206 264" fill="none" xmlns="http://www.w3.org/2000/svg">
<g clip-path="url(#clip0_18_13)">
<path d="M24.5278 191.04C31.4878 194.397 38.9089 197.229 46.7913 199.537C54.7575 201.74 63.3945 202.842 72.7024 202.842C78.7399 202.842 84.2743 202.16 89.3056 200.796C94.3369 199.432 98.6554 197.282 102.261 194.344C105.951 191.407 108.802 187.683 110.814 183.171C112.911 178.555 113.959 173.048 113.959 166.648C113.959 159.724 112.827 154.217 110.563 150.125C108.383 146.034 105.28 142.677 101.255 140.054C97.2299 137.431 92.3663 135.228 86.6642 133.445C80.9621 131.661 74.631 129.668 67.6711 127.465C59.8726 124.947 52.745 122.062 46.2881 118.81C39.9152 115.557 34.4646 111.361 29.9365 106.221C25.4083 101.08 21.8864 94.733 19.3708 87.1796C16.8551 79.6261 15.5973 70.2892 15.5973 59.1688C15.5973 51.7202 16.5616 45.0585 18.4903 39.1836C20.5028 33.3087 23.1862 28.2206 26.5404 23.9193C29.8945 19.5131 33.7519 15.7888 38.1123 12.7465C42.5566 9.7041 47.1686 7.23874 51.9483 5.35037C56.8119 3.462 61.7593 2.09818 66.7906 1.25891C71.8219 0.419637 76.6016 0 81.1298 0C84.3163 0 88.1317 0.209818 92.576 0.629455C97.1041 1.04909 101.884 1.83591 106.915 2.98991C112.03 4.039 117.271 5.45528 122.638 7.23874C128.088 9.02219 133.329 11.2777 138.361 14.0054L129.43 41.3867C122.722 38.3443 115.72 35.879 108.425 33.9906C101.213 32.1022 93.6241 31.158 85.6579 31.158C80.6267 31.158 76.0147 31.6826 71.8219 32.7317C67.6292 33.6759 63.9815 35.2495 60.8789 37.4526C57.8601 39.6557 55.5122 42.5407 53.8351 46.1076C52.158 49.6745 51.3194 53.9758 51.3194 59.0114C51.3194 65.5158 52.3257 70.6039 54.3382 74.2757C56.4346 77.9475 59.4114 80.9375 63.2687 83.2455C67.126 85.5535 71.8219 87.5467 77.3563 89.2253C82.9746 90.7989 89.3056 92.7397 96.3494 95.0477C104.064 97.5656 111.15 100.555 117.607 104.017C124.147 107.375 129.766 111.781 134.461 117.236C139.241 122.586 142.973 129.248 145.656 137.221C148.339 145.194 149.681 155.003 149.681 166.648C149.681 176.929 148.381 185.742 145.782 193.085C143.182 200.429 139.786 206.619 135.593 211.654C131.401 216.585 126.621 220.519 121.254 223.457C115.888 226.394 110.437 228.65 104.903 230.223C99.3682 231.797 94.0015 232.794 88.8025 233.213C83.6035 233.738 79.0334 234 75.0922 234C71.2349 233.895 66.8745 233.58 62.0109 233.056C57.2312 232.531 52.1999 231.692 46.9171 230.538C41.6342 229.384 36.2675 227.863 30.817 225.974C25.4502 223.981 20.2513 221.568 15.22 218.736L24.5278 191.04Z" fill="#3D6D00"/>
<path d="M223.138 3.9341V230.223H188.045V3.9341H223.138Z" fill="#3D6D00"/>
<path d="M320.745 3.9341C330.64 3.9341 339.78 4.61601 348.165 5.97983C356.551 7.23874 364.265 9.49428 371.309 12.7465C379.611 16.6281 386.571 21.8211 392.189 28.3255C397.807 34.7249 402.293 42.3309 405.648 51.1432C409.002 59.9556 411.392 69.8695 412.817 80.885C414.243 91.7956 414.955 103.65 414.955 116.449C414.955 129.248 414.201 141.155 412.691 152.171C411.266 163.186 408.834 173.153 405.396 182.07C401.958 190.882 397.43 198.593 391.812 205.202C386.277 211.707 379.443 216.952 371.309 220.939C364.265 224.296 356.551 226.709 348.165 228.178C339.78 229.541 330.64 230.223 320.745 230.223H271.69V3.9341H320.745ZM311.94 198.278C325.776 198.278 337.054 197.02 345.775 194.502C354.496 191.984 361.33 187.63 366.278 181.44C371.225 175.251 374.621 167.015 376.466 156.734C378.311 146.348 379.233 133.287 379.233 117.551C379.233 101.814 378.311 88.7007 376.466 78.2098C374.705 67.7189 371.519 59.3786 366.907 53.189C362.295 46.8944 356.048 42.4358 348.165 39.813C340.283 37.1903 330.304 35.879 318.229 35.879H306.909V198.278H311.94Z" fill="#3D6D00"/>
<path d="M633.187 3.9341L653.816 230.223H619.351L604.509 61.844H603.754L564.888 231.01H526.147L487.28 61.844H486.525L471.683 230.223H437.219L457.847 3.9341H503.883L545.517 185.375L587.151 3.9341H633.187Z" fill="#3D6D00"/>
<path d="M759.976 0.472091C775.07 0.472091 787.816 3.35709 798.214 9.1271C808.612 14.7922 817.039 22.7653 823.496 33.0464C830.036 43.3275 834.732 55.6543 837.583 70.0269C840.434 84.2946 841.86 100.031 841.86 117.236C841.86 134.441 840.434 150.23 837.583 164.603C834.732 178.87 830.036 191.145 823.496 201.426C817.039 211.707 808.612 219.732 798.214 225.502C787.816 231.167 775.07 234 759.976 234C745.133 234 732.513 231.22 722.115 225.66C711.717 220.1 703.248 212.231 696.707 202.055C690.251 191.879 685.513 179.605 682.494 165.232C679.559 150.859 678.092 134.861 678.092 117.236C678.092 99.6113 679.559 83.6126 682.494 69.2401C685.513 54.8675 690.251 42.5931 696.707 32.4169C703.248 22.2408 711.717 14.3726 722.115 8.81237C732.513 3.25219 745.133 0.472091 759.976 0.472091ZM759.976 32.7317C751.171 32.7317 743.792 34.5151 737.838 38.082C731.968 41.649 727.23 46.9993 723.625 54.1332C720.103 61.1621 717.587 69.9744 716.078 80.5703C714.568 91.0612 713.814 103.283 713.814 117.236C713.814 131.189 714.568 143.463 716.078 154.059C717.587 164.55 720.103 173.362 723.625 180.496C727.23 187.525 731.968 192.823 737.838 196.39C743.792 199.957 751.171 201.74 759.976 201.74C768.697 201.74 775.992 200.009 781.862 196.547C787.816 192.98 792.553 187.683 796.075 180.654C799.681 173.625 802.239 164.812 803.748 154.217C805.341 143.621 806.138 131.294 806.138 117.236C806.138 103.178 805.341 90.8514 803.748 80.2555C802.239 69.6597 799.681 60.8473 796.075 53.8184C792.553 46.7895 787.816 41.544 781.862 38.082C775.992 34.5151 768.697 32.7317 759.976 32.7317Z" fill="#3D6D00"/>
<path d="M953.932 0.472091C969.026 0.472091 981.772 3.35709 992.17 9.1271C1002.57 14.7922 1010.99 22.7653 1017.45 33.0464C1023.99 43.3275 1028.69 55.6543 1031.54 70.0269C1034.39 84.2946 1035.82 100.031 1035.82 117.236C1035.82 134.441 1034.39 150.23 1031.54 164.603C1028.69 178.87 1023.99 191.145 1017.45 201.426C1010.99 211.707 1002.57 219.732 992.17 225.502C981.772 231.167 969.026 234 953.932 234C939.089 234 926.469 231.22 916.071 225.66C905.673 220.1 897.204 212.231 890.663 202.055C884.207 191.879 879.469 179.605 876.45 165.232C873.515 150.859 872.048 134.861 872.048 117.236C872.048 99.6113 873.515 83.6126 876.45 69.2401C879.469 54.8675 884.207 42.5931 890.663 32.4169C897.204 22.2408 905.673 14.3726 916.071 8.81237C926.469 3.25219 939.089 0.472091 953.932 0.472091ZM953.932 32.7317C945.127 32.7317 937.748 34.5151 931.794 38.082C925.924 41.649 921.186 46.9993 917.581 54.1332C914.059 61.1621 911.543 69.9744 910.034 80.5703C908.524 91.0612 907.77 103.283 907.77 117.236C907.77 131.189 908.524 143.463 910.034 154.059C911.543 164.55 914.059 173.362 917.581 180.496C921.186 187.525 925.924 192.823 931.794 196.39C937.748 199.957 945.127 201.74 953.932 201.74C962.653 201.74 969.948 200.009 975.818 196.547C981.772 192.98 986.509 187.683 990.031 180.654C993.637 173.625 996.195 164.812 997.704 154.217C999.297 143.621 1000.09 131.294 1000.09 117.236C1000.09 103.178 999.297 90.8514 997.704 80.2555C996.195 69.6597 993.637 60.8473 990.031 53.8184C986.509 46.7895 981.772 41.544 975.818 38.082C969.948 34.5151 962.653 32.7317 953.932 32.7317Z" fill="#3D6D00"/>
<path d="M1110.66 3.9341V197.964H1181.22V230.223H1075.56V3.9341H1110.66Z" fill="#3D6D00"/>
<path d="M661.446 185.443C330.428 256.752 135.137 227.165 0 150.722C170.058 293.151 427.558 272.476 728.763 212.415C1029.97 152.353 1065.42 169.272 1205.37 175.896C1205.37 175.896 992.465 114.133 661.446 185.443Z" fill="#B5C500"/>
</g>
<defs>
<clipPath id="clip0_18_13">
<rect width="1206" height="264" fill="white"/>
</clipPath>
</defs>
</svg>
