<svg width="123" height="26" viewBox="0 0 123 26" fill="none" xmlns="http://www.w3.org/2000/svg">
<g clip-path="url(#clip0_100_488)">
<path d="M2.78362 18.8145C3.49225 19.1451 4.24783 19.4241 5.05037 19.6514C5.86145 19.8684 6.74083 19.9769 7.68852 19.9769C8.30323 19.9769 8.86672 19.9097 9.37898 19.7754C9.89124 19.6411 10.3309 19.4293 10.698 19.14C11.0737 18.8507 11.364 18.4839 11.5689 18.0396C11.7823 17.585 11.8891 17.0426 11.8891 16.4123C11.8891 15.7304 11.7738 15.188 11.5433 14.785C11.3213 14.3821 11.0054 14.0515 10.5956 13.7932C10.1858 13.5349 9.6906 13.3179 9.11004 13.1423C8.52948 12.9666 7.88488 12.7703 7.17626 12.5533C6.38225 12.3054 5.65655 12.0212 4.99915 11.701C4.35028 11.3807 3.79533 10.9674 3.3343 10.4611C2.87327 9.95485 2.51468 9.32977 2.25855 8.58587C2.00242 7.84196 1.87436 6.92242 1.87436 5.82723C1.87436 5.09366 1.97254 4.43758 2.16891 3.85899C2.37381 3.2804 2.64702 2.7793 2.98852 2.35569C3.33003 1.92175 3.72276 1.55496 4.16672 1.25533C4.61922 0.955707 5.08879 0.712906 5.57544 0.52693C6.07063 0.340955 6.57435 0.206639 7.08661 0.123984C7.59887 0.0413279 8.08552 0 8.54655 0C8.87098 0 9.25945 0.0206639 9.71195 0.0619918C10.173 0.10332 10.6596 0.180809 11.1719 0.294461C11.6927 0.397781 12.2263 0.537262 12.7727 0.712906C13.3277 0.888549 13.8613 1.11069 14.3735 1.37932L13.4643 4.07596C12.7812 3.77633 12.0683 3.53353 11.3256 3.34756C10.5913 3.16158 9.81867 3.06859 9.00759 3.06859C8.49533 3.06859 8.02575 3.12025 7.59887 3.22357C7.17199 3.31656 6.8006 3.47154 6.4847 3.68851C6.17735 3.90548 5.93829 4.18961 5.76754 4.5409C5.59678 4.89219 5.51141 5.3158 5.51141 5.81173C5.51141 6.45231 5.61386 6.95341 5.81876 7.31503C6.03221 7.67665 6.33529 7.97111 6.72803 8.19842C7.12076 8.42572 7.59887 8.62203 8.16236 8.78734C8.73438 8.94232 9.37898 9.13346 10.0961 9.36076C10.8816 9.60873 11.603 9.90319 12.2604 10.2441C12.9264 10.5748 13.4984 11.0087 13.9765 11.546C14.4632 12.0729 14.8431 12.729 15.1163 13.5142C15.3895 14.2994 15.5261 15.2655 15.5261 16.4123C15.5261 17.4249 15.3938 18.2927 15.1291 19.016C14.8644 19.7392 14.5187 20.3488 14.0918 20.8447C13.6649 21.3303 13.1782 21.7178 12.6318 22.0071C12.0854 22.2964 11.5305 22.5185 10.967 22.6735C10.4035 22.8285 9.85709 22.9266 9.32775 22.968C8.79841 23.0196 8.33311 23.0455 7.93184 23.0455C7.53911 23.0351 7.09515 23.0041 6.59996 22.9525C6.11331 22.9008 5.60105 22.8182 5.06318 22.7045C4.52531 22.5908 3.97889 22.441 3.42395 22.2551C2.87753 22.0588 2.3482 21.8211 1.83594 21.5422L2.78362 18.8145Z" fill="#215000"/>
<path d="M23.0051 0.387449V22.6735H19.4321V0.387449H23.0051Z" fill="#215000"/>
<path d="M32.943 0.387449C33.9504 0.387449 34.881 0.454607 35.7348 0.588922C36.5886 0.712906 37.374 0.935043 38.0912 1.25533C38.9364 1.63762 39.645 2.14905 40.2171 2.78963C40.7891 3.41988 41.2459 4.16895 41.5874 5.03683C41.9289 5.90472 42.1722 6.88109 42.3173 7.96595C42.4625 9.04047 42.535 10.208 42.535 11.4685C42.535 12.729 42.4582 13.9017 42.3045 14.9865C42.1594 16.0714 41.9118 17.0529 41.5618 17.9311C41.2117 18.799 40.7507 19.5584 40.1786 20.2093C39.6152 20.8499 38.9193 21.3665 38.0912 21.7591C37.374 22.0897 36.5886 22.3274 35.7348 22.472C34.881 22.6063 33.9504 22.6735 32.943 22.6735H27.9484V0.387449H32.943ZM32.0465 19.5274C33.4552 19.5274 34.6035 19.4034 35.4915 19.1555C36.3794 18.9075 37.0752 18.4787 37.5789 17.8691C38.0827 17.2596 38.4284 16.4485 38.6163 15.436C38.8041 14.4131 38.898 13.1268 38.898 11.577C38.898 10.0272 38.8041 8.73568 38.6163 7.70248C38.437 6.66928 38.1125 5.84789 37.643 5.23831C37.1734 4.61839 36.5373 4.17928 35.7348 3.92098C34.9322 3.66268 33.9163 3.53353 32.6868 3.53353H31.5343V19.5274H32.0465Z" fill="#215000"/>
<path d="M64.7544 0.387449L66.8546 22.6735H63.3456L61.8345 6.09069H61.7576L57.8004 22.751H53.856L49.8988 6.09069H49.822L48.3108 22.6735H44.8018L46.9021 0.387449H51.5893L55.8282 18.2566L60.0672 0.387449H64.7544Z" fill="#215000"/>
<path d="M77.6633 0.0464939C79.2001 0.0464939 80.4978 0.330623 81.5565 0.898881C82.6152 1.45681 83.4732 2.24204 84.1306 3.25457C84.7966 4.2671 85.2747 5.48111 85.5649 6.89659C85.8552 8.30174 86.0004 9.85153 86.0004 11.546C86.0004 13.2404 85.8552 14.7954 85.5649 16.2109C85.2747 17.616 84.7966 18.8248 84.1306 19.8374C83.4732 20.8499 82.6152 21.6403 81.5565 22.2086C80.4978 22.7665 79.2001 23.0455 77.6633 23.0455C76.1522 23.0455 74.8672 22.7717 73.8086 22.2241C72.7499 21.6765 71.8876 20.9016 71.2216 19.8994C70.5642 18.8972 70.0819 17.6883 69.7745 16.2728C69.4757 14.8574 69.3263 13.2817 69.3263 11.546C69.3263 9.8102 69.4757 8.23458 69.7745 6.8191C70.0819 5.40362 70.5642 4.19478 71.2216 3.19258C71.8876 2.19038 72.7499 1.41548 73.8086 0.867885C74.8672 0.320291 76.1522 0.0464939 77.6633 0.0464939ZM77.6633 3.22357C76.7669 3.22357 76.0156 3.39922 75.4094 3.7505C74.8117 4.10179 74.3294 4.62872 73.9622 5.3313C73.6037 6.02354 73.3475 6.89142 73.1939 7.93495C73.0402 8.96815 72.9633 10.1718 72.9633 11.546C72.9633 12.9201 73.0402 14.129 73.1939 15.1725C73.3475 16.2057 73.6037 17.0736 73.9622 17.7761C74.3294 18.4684 74.8117 18.9902 75.4094 19.3414C76.0156 19.6927 76.7669 19.8684 77.6633 19.8684C78.5512 19.8684 79.294 19.6979 79.8917 19.3569C80.4978 19.0057 80.9802 18.4839 81.3388 17.7916C81.7059 17.0994 81.9663 16.2315 82.12 15.188C82.2822 14.1445 82.3633 12.9305 82.3633 11.546C82.3633 10.1615 82.2822 8.94748 82.12 7.90395C81.9663 6.86043 81.7059 5.99254 81.3388 5.3003C80.9802 4.60806 80.4978 4.09146 79.8917 3.7505C79.294 3.39922 78.5512 3.22357 77.6633 3.22357Z" fill="#215000"/>
<path d="M97.411 0.0464939C98.9478 0.0464939 100.245 0.330623 101.304 0.898881C102.363 1.45681 103.221 2.24204 103.878 3.25457C104.544 4.2671 105.022 5.48111 105.313 6.89659C105.603 8.30174 105.748 9.85153 105.748 11.546C105.748 13.2404 105.603 14.7954 105.313 16.2109C105.022 17.616 104.544 18.8248 103.878 19.8374C103.221 20.8499 102.363 21.6403 101.304 22.2086C100.245 22.7665 98.9478 23.0455 97.411 23.0455C95.8998 23.0455 94.6149 22.7717 93.5562 22.2241C92.4975 21.6765 91.6352 20.9016 90.9693 19.8994C90.3119 18.8972 89.8295 17.6883 89.5222 16.2728C89.2233 14.8574 89.0739 13.2817 89.0739 11.546C89.0739 9.8102 89.2233 8.23458 89.5222 6.8191C89.8295 5.40362 90.3119 4.19478 90.9693 3.19258C91.6352 2.19038 92.4975 1.41548 93.5562 0.867885C94.6149 0.320291 95.8998 0.0464939 97.411 0.0464939ZM97.411 3.22357C96.5145 3.22357 95.7632 3.39922 95.157 3.7505C94.5594 4.10179 94.077 4.62872 93.7099 5.3313C93.3513 6.02354 93.0952 6.89142 92.9415 7.93495C92.7878 8.96815 92.711 10.1718 92.711 11.546C92.711 12.9201 92.7878 14.129 92.9415 15.1725C93.0952 16.2057 93.3513 17.0736 93.7099 17.7761C94.077 18.4684 94.5594 18.9902 95.157 19.3414C95.7632 19.6927 96.5145 19.8684 97.411 19.8684C98.2989 19.8684 99.0417 19.6979 99.6393 19.3569C100.245 19.0057 100.728 18.4839 101.086 17.7916C101.454 17.0994 101.714 16.2315 101.868 15.188C102.03 14.1445 102.111 12.9305 102.111 11.546C102.111 10.1615 102.03 8.94748 101.868 7.90395C101.714 6.86043 101.454 5.99254 101.086 5.3003C100.728 4.60806 100.245 4.09146 99.6393 3.7505C99.0417 3.39922 98.2989 3.22357 97.411 3.22357Z" fill="#215000"/>
<path d="M113.368 0.387449V19.4964H120.552V22.6735H109.795V0.387449H113.368Z" fill="#215000"/>
<path d="M67.5294 18.27C33.7345 25.2954 13.7966 22.3805 0 14.8492C17.3618 28.8814 43.6509 26.8445 74.4019 20.9272C105.153 15.01 108.773 16.6768 123.061 17.3294C123.061 17.3294 101.324 11.2445 67.5294 18.27Z" fill="#B5C500"/>
</g>
<defs>
<clipPath id="clip0_100_488">
<rect width="123" height="26" fill="white"/>
</clipPath>
</defs>
</svg>
